<?xml version='1.0' encoding='ascii'?>
<svg xmlns="http://www.w3.org/2000/svg" height="1080" version="1.1" width="1920">
    <g id="View Layer_LineSet" inkscape:groupmode="lineset" inkscape:label="View Layer_LineSet" xmlns:inkscape="http://www.inkscape.org/namespaces/inkscape">
        <g id="strokes" inkscape:groupmode="layer" inkscape:label="strokes" xmlns:inkscape="http://www.inkscape.org/namespaces/inkscape">
            <path d=" M 618.012, 434.174 608.960, 429.925 600.606, 426.005 591.613, 421.631 582.620, 417.257 579.794, 415.882 570.875, 411.360 563.285, 407.512 554.445, 402.838 545.605, 398.163 540.149, 395.278 531.210, 390.795 524.929, 387.645 515.801, 383.562 512.619, 382.138 503.317, 378.467 502.258, 378.049 492.893, 374.674 500.129, 381.577 507.365, 388.479 514.600, 395.382 520.175, 400.700 527.440, 407.571 534.705, 414.443 541.969, 421.315 547.347, 426.402 554.671, 433.211 561.995, 440.020 569.319, 446.828 574.299, 451.458 581.714, 458.168 589.129, 464.877 596.545, 471.586 600.921, 475.546 608.463, 482.113 616.005, 488.679 623.547, 495.246 627.103, 498.343 634.812, 504.713 642.520, 511.083 650.229, 517.453 652.735, 519.524 660.656, 525.628 668.577, 531.732 676.498, 537.836 677.708, 538.769 685.893, 544.513 694.079, 550.257 701.910, 555.753 710.395, 561.045 718.879, 566.338 725.231, 570.300 733.953, 575.192 742.674, 580.084 747.549, 582.818 756.417, 587.440 765.286, 592.061 768.744, 593.864 777.295, 599.049 785.419, 603.975 793.903, 609.269 801.852, 614.229 809.789, 620.313 817.725, 626.398 818.241, 626.793 825.878, 633.249 832.270, 638.651 839.317, 645.747 845.846, 652.321 852.102, 660.123 857.005, 666.238 862.504, 674.590 866.743, 681.030 871.284, 689.939 874.798, 696.835 877.458, 706.475 880.118, 716.114 882.376, 724.298 884.199, 730.906 " fill="none" stroke="rgb(35, 35, 35)" stroke-linecap="butt" stroke-linejoin="round" stroke-opacity="1.0" stroke-width="30" />
            <path d=" M 883.980, 728.731 881.976, 718.934 880.922, 713.778 882.291, 723.684 882.376, 724.298 883.746, 734.204 885.042, 743.577 885.480, 746.748 " fill="none" stroke="rgb(35, 35, 35)" stroke-linecap="butt" stroke-linejoin="round" stroke-opacity="1.0" stroke-width="30" />
            <path d=" M 829.925, 627.552 824.365, 623.708 815.724, 618.676 807.274, 613.754 798.422, 609.103 789.569, 604.451 788.693, 603.991 779.776, 599.464 770.859, 594.938 768.744, 593.864 " fill="none" stroke="rgb(35, 35, 35)" stroke-linecap="butt" stroke-linejoin="round" stroke-opacity="1.0" stroke-width="30" />
            <path d=" M 854.174, 881.988 849.925, 891.040 846.005, 899.394 841.631, 908.387 837.257, 917.380 835.882, 920.206 831.360, 929.125 827.512, 936.715 822.838, 945.555 818.163, 954.395 815.278, 959.851 810.795, 968.790 807.645, 975.071 803.562, 984.199 802.138, 987.381 798.467, 996.683 798.049, 997.742 794.674, 1007.107 801.577, 999.871 808.479, 992.635 815.382, 985.400 820.700, 979.825 827.571, 972.560 834.443, 965.295 841.315, 958.031 846.402, 952.653 853.211, 945.329 860.020, 938.005 866.828, 930.681 871.458, 925.701 878.168, 918.286 884.877, 910.871 891.586, 903.455 895.546, 899.079 902.113, 891.537 908.679, 883.995 915.246, 876.453 918.343, 872.897 924.713, 865.188 931.083, 857.480 937.453, 849.771 939.524, 847.265 945.628, 839.344 951.732, 831.423 957.836, 823.502 958.769, 822.292 964.513, 814.107 970.257, 805.921 975.753, 798.090 981.045, 789.605 986.338, 781.121 990.300, 774.769 995.192, 766.048 1000.084, 757.326 1002.818, 752.451 1007.440, 743.582 1012.061, 734.714 1013.864, 731.256 1019.049, 722.705 1023.975, 714.581 1029.269, 706.097 1034.229, 698.148 1040.313, 690.211 1046.397, 682.275 1046.793, 681.759 1053.249, 674.122 1058.651, 667.730 1065.747, 660.683 1072.321, 654.154 1080.123, 647.898 1086.238, 642.995 1094.590, 637.496 1101.030, 633.257 1109.939, 628.716 1116.835, 625.202 1126.255, 621.846 1134.357, 618.960 1135.371, 618.599 1133.778, 619.078 1134.357, 618.960 1144.154, 616.956 1148.326, 616.103 " fill="none" stroke="rgb(35, 35, 35)" stroke-linecap="butt" stroke-linejoin="round" stroke-opacity="1.0" stroke-width="30" />
            <path d=" M 1065.826, 198.012 1070.075, 188.960 1073.995, 180.606 1078.369, 171.613 1082.743, 162.620 1084.118, 159.794 1088.640, 150.875 1092.488, 143.285 1097.162, 134.445 1101.837, 125.605 1104.722, 120.149 1109.205, 111.210 1112.355, 104.929 1116.438, 95.801 1117.862, 92.619 1121.533, 83.317 1121.951, 82.258 1125.326, 72.893 1118.423, 80.129 1111.521, 87.365 1104.618, 94.600 1099.300, 100.175 1092.428, 107.440 1085.557, 114.705 1078.685, 121.969 1073.598, 127.347 1066.789, 134.671 1059.980, 141.995 1053.172, 149.319 1048.542, 154.299 1041.832, 161.714 1035.123, 169.129 1028.414, 176.545 1024.454, 180.921 1017.887, 188.463 1011.321, 196.005 1004.754, 203.547 1001.657, 207.103 995.287, 214.812 988.917, 222.520 982.547, 230.229 980.476, 232.735 974.372, 240.656 968.268, 248.577 962.164, 256.498 961.231, 257.708 955.487, 265.893 949.743, 274.079 944.247, 281.910 938.955, 290.395 933.662, 298.879 929.700, 305.231 924.808, 313.953 919.916, 322.674 917.182, 327.549 912.560, 336.417 907.939, 345.286 906.136, 348.744 900.951, 357.295 896.025, 365.419 890.731, 373.903 885.771, 381.852 879.687, 389.789 873.602, 397.725 873.207, 398.241 866.751, 405.878 861.349, 412.270 854.253, 419.317 847.679, 425.846 839.877, 432.102 833.762, 437.005 825.410, 442.504 818.970, 446.744 810.061, 451.284 803.165, 454.798 793.745, 458.154 785.643, 461.040 784.629, 461.401 786.222, 460.922 785.643, 461.040 775.846, 463.044 771.674, 463.897 " fill="none" stroke="rgb(35, 35, 35)" stroke-linecap="butt" stroke-linejoin="round" stroke-opacity="1.0" stroke-width="30" />
            <path d=" M 872.527, 409.810 876.292, 404.365 881.324, 395.724 886.246, 387.274 890.897, 378.422 895.549, 369.569 896.009, 368.693 900.536, 359.776 905.062, 350.859 906.136, 348.744 " fill="none" stroke="rgb(35, 35, 35)" stroke-linecap="butt" stroke-linejoin="round" stroke-opacity="1.0" stroke-width="30" />
            <path d=" M 1301.988, 645.826 1311.040, 650.075 1319.394, 653.995 1328.387, 658.369 1337.380, 662.743 1340.206, 664.118 1349.125, 668.640 1356.715, 672.488 1365.555, 677.162 1374.395, 681.837 1379.851, 684.722 1388.790, 689.205 1395.071, 692.355 1404.199, 696.438 1407.381, 697.862 1416.683, 701.533 1417.742, 701.951 1427.107, 705.326 1419.871, 698.423 1412.635, 691.521 1405.400, 684.618 1399.825, 679.300 1392.560, 672.429 1385.295, 665.557 1378.031, 658.685 1372.653, 653.598 1365.329, 646.789 1358.005, 639.980 1350.681, 633.172 1345.701, 628.542 1338.286, 621.832 1330.871, 615.123 1323.455, 608.414 1319.079, 604.454 1311.537, 597.887 1303.995, 591.321 1296.453, 584.754 1292.897, 581.657 1285.188, 575.287 1277.480, 568.917 1269.771, 562.547 1267.265, 560.476 1259.344, 554.372 1251.423, 548.268 1243.502, 542.164 1242.292, 541.231 1234.107, 535.487 1225.921, 529.743 1218.090, 524.247 1209.605, 518.955 1201.121, 513.662 1194.769, 509.700 1186.047, 504.808 1177.326, 499.916 1172.451, 497.182 1163.583, 492.560 1154.714, 487.939 1151.256, 486.136 1142.705, 480.951 1134.581, 476.025 1126.097, 470.731 1118.148, 465.771 1110.211, 459.687 1102.275, 453.602 1101.759, 453.207 1094.122, 446.752 1087.730, 441.349 1080.683, 434.253 1074.154, 427.679 1067.898, 419.877 1062.995, 413.762 1057.496, 405.410 1053.256, 398.970 1048.716, 390.061 1045.202, 383.165 1042.542, 373.525 1039.882, 363.885 1037.624, 355.702 1035.801, 349.094 " fill="none" stroke="rgb(35, 35, 35)" stroke-linecap="butt" stroke-linejoin="round" stroke-opacity="1.0" stroke-width="30" />
            <path d=" M 1090.075, 452.448 1095.635, 456.292 1104.276, 461.324 1112.726, 466.246 1121.578, 470.897 1130.431, 475.549 1131.307, 476.009 1140.224, 480.536 1149.141, 485.062 1151.256, 486.136 " fill="none" stroke="rgb(35, 35, 35)" stroke-linecap="butt" stroke-linejoin="round" stroke-opacity="1.0" stroke-width="30" />
            <path d=" M 1036.020, 351.269 1038.024, 361.066 1039.078, 366.222 1037.709, 356.316 1037.624, 355.702 1036.254, 345.796 1034.958, 336.423 1034.520, 333.253 " fill="none" stroke="rgb(35, 35, 35)" stroke-linecap="butt" stroke-linejoin="round" stroke-opacity="1.0" stroke-width="30" />
            <path d=" M 1047.473, 670.190 1043.708, 675.635 1038.676, 684.276 1033.754, 692.726 1029.103, 701.578 1024.451, 710.431 1023.991, 711.307 1019.464, 720.224 1014.938, 729.141 1013.864, 731.256 " fill="none" stroke="rgb(35, 35, 35)" stroke-linecap="butt" stroke-linejoin="round" stroke-opacity="1.0" stroke-width="30" />
            <path d=" M 825.815, 622.880 832.620, 630.207 837.500, 635.461 " fill="none" stroke="rgb(35, 35, 35)" stroke-linecap="butt" stroke-linejoin="round" stroke-opacity="1.0" stroke-width="30" />
            <path d=" M 773.334, 581.514 779.078, 585.365 780.700, 586.452 782.519, 587.672 783.731, 588.574 783.732, 588.574 791.755, 594.542 792.529, 595.118 800.348, 601.352 803.193, 603.621 810.862, 610.038 814.339, 612.947 821.710, 619.705 827.439, 624.957 829.925, 627.552 836.842, 634.774 837.500, 635.461 844.195, 642.888 847.563, 646.623 853.500, 654.669 856.805, 659.148 862.123, 667.616 864.770, 671.831 869.521, 680.630 871.587, 684.455 875.105, 693.815 876.940, 698.696 879.778, 708.285 881.274, 713.341 883.082, 723.176 883.829, 727.242 883.980, 728.731 884.199, 730.906 884.964, 738.480 885.400, 742.797 885.480, 746.748 885.682, 756.745 885.689, 757.088 885.357, 764.346 884.961, 773.010 883.737, 782.935 883.158, 787.635 881.622, 797.516 880.818, 802.689 880.707, 803.402 " fill="none" stroke="rgb(35, 35, 35)" stroke-linecap="butt" stroke-linejoin="round" stroke-opacity="1.0" stroke-width="30" />
            <path d=" M 872.036, 685.133 867.243, 676.357 864.770, 671.831 " fill="none" stroke="rgb(35, 35, 35)" stroke-linecap="butt" stroke-linejoin="round" stroke-opacity="1.0" stroke-width="30" />
            <path d=" M 801.304, 456.940 798.522, 457.763 788.933, 460.601 786.659, 461.274 776.824, 463.082 772.758, 463.829 771.674, 463.897 761.693, 464.519 751.712, 465.140 749.368, 465.286 " fill="none" stroke="rgb(35, 35, 35)" stroke-linecap="butt" stroke-linejoin="round" stroke-opacity="1.0" stroke-width="30" />
            <path d=" M 757.203, 465.400 749.368, 465.286 739.369, 465.141 735.654, 465.087 726.990, 464.961 717.087, 463.575 716.632, 463.511 708.478, 462.370 698.575, 460.983 696.598, 460.707 " fill="none" stroke="rgb(35, 35, 35)" stroke-linecap="butt" stroke-linejoin="round" stroke-opacity="1.0" stroke-width="30" />
            <path d=" M 666.262, 453.222 675.970, 455.617 685.679, 458.013 695.388, 460.408 696.598, 460.707 " fill="none" stroke="rgb(35, 35, 35)" stroke-linecap="butt" stroke-linejoin="round" stroke-opacity="1.0" stroke-width="30" />
            <path d=" M 917.551, 356.263 912.481, 362.711 912.161, 363.118 911.651, 363.767 910.812, 364.835 910.811, 364.835 910.401, 365.358 910.102, 365.738 906.589, 370.206 900.409, 378.068 899.434, 379.308 896.379, 383.193 895.589, 384.091 888.983, 391.598 882.377, 399.105 875.771, 406.613 875.043, 407.439 872.527, 409.810 865.249, 416.668 860.546, 421.100 " fill="none" stroke="rgb(35, 35, 35)" stroke-linecap="butt" stroke-linejoin="round" stroke-opacity="1.0" stroke-width="30" />
            <path d=" M 798.522, 457.763 807.923, 454.352 815.545, 451.587 824.345, 446.835 828.169, 444.770 836.638, 439.452 840.852, 436.805 848.899, 430.867 853.377, 427.563 860.546, 421.100 864.539, 417.500 871.867, 410.694 877.120, 405.815 " fill="none" stroke="rgb(35, 35, 35)" stroke-linecap="butt" stroke-linejoin="round" stroke-opacity="1.0" stroke-width="30" />
            <path d=" M 828.169, 444.770 836.950, 439.984 841.611, 437.443 832.832, 442.233 824.054, 447.023 815.276, 451.813 814.867, 452.036 " fill="none" stroke="rgb(35, 35, 35)" stroke-linecap="butt" stroke-linejoin="round" stroke-opacity="1.0" stroke-width="30" />
            <path d=" M 918.486, 353.334 914.940, 358.580 913.984, 359.994 912.743, 361.831 " fill="none" stroke="rgb(35, 35, 35)" stroke-linecap="butt" stroke-linejoin="round" stroke-opacity="1.0" stroke-width="30" />
            <path d=" M 887.053, 394.339 893.516, 386.671 894.787, 385.163 901.232, 377.517 905.815, 372.080 905.924, 371.950 908.427, 368.982 908.590, 368.788 908.648, 368.720 908.648, 368.719 909.164, 368.107 " fill="none" stroke="rgb(35, 35, 35)" stroke-linecap="butt" stroke-linejoin="round" stroke-opacity="1.0" stroke-width="30" />
            <path d=" M 924.988, 345.164 919.067, 353.223 915.096, 358.627 913.984, 360.141 913.410, 360.922 912.743, 361.831 911.677, 363.281 911.677, 363.281 906.589, 370.206 " fill="none" stroke="rgb(35, 35, 35)" stroke-linecap="butt" stroke-linejoin="round" stroke-opacity="1.0" stroke-width="30" />
            <path d=" M 1146.666, 498.486 1140.922, 494.635 1139.300, 493.548 1137.481, 492.328 1136.269, 491.426 1136.268, 491.426 1128.245, 485.458 1127.471, 484.882 1119.652, 478.648 1116.807, 476.379 1109.138, 469.962 1105.661, 467.053 1098.290, 460.295 1092.561, 455.043 1090.075, 452.448 1083.158, 445.226 1082.500, 444.539 1075.805, 437.112 1072.438, 433.377 1066.500, 425.331 1063.195, 420.852 1057.877, 412.384 1055.230, 408.169 1050.479, 399.370 1048.413, 395.545 1044.895, 386.185 1043.060, 381.304 1040.222, 371.715 1038.726, 366.659 1036.918, 356.824 1036.171, 352.758 1036.020, 351.269 1035.801, 349.094 1035.036, 341.520 1034.600, 337.203 1034.520, 333.253 1034.318, 323.255 1034.311, 322.912 1034.643, 315.654 1035.039, 306.990 1036.263, 297.065 1036.842, 292.365 1038.378, 282.484 1039.182, 277.311 1039.293, 276.598 " fill="none" stroke="rgb(35, 35, 35)" stroke-linecap="butt" stroke-linejoin="round" stroke-opacity="1.0" stroke-width="30" />
            <path d=" M 1082.500, 444.539 1089.306, 451.867 1094.185, 457.120 " fill="none" stroke="rgb(35, 35, 35)" stroke-linecap="butt" stroke-linejoin="round" stroke-opacity="1.0" stroke-width="30" />
            <path d=" M 1047.964, 394.867 1052.757, 403.643 1055.230, 408.169 " fill="none" stroke="rgb(35, 35, 35)" stroke-linecap="butt" stroke-linejoin="round" stroke-opacity="1.0" stroke-width="30" />
            <path d=" M 1055.461, 662.500 1059.454, 658.901 1066.623, 652.437 1074.669, 646.500 1079.148, 643.195 1087.616, 637.877 1091.831, 635.230 1100.630, 630.479 1104.455, 628.413 1113.855, 625.003 1121.478, 622.237 " fill="none" stroke="rgb(35, 35, 35)" stroke-linecap="butt" stroke-linejoin="round" stroke-opacity="1.0" stroke-width="30" />
            <path d=" M 1091.831, 635.230 1083.050, 640.016 1078.389, 642.557 1087.167, 637.767 1095.946, 632.977 1104.724, 628.187 1105.133, 627.964 " fill="none" stroke="rgb(35, 35, 35)" stroke-linecap="butt" stroke-linejoin="round" stroke-opacity="1.0" stroke-width="30" />
            <path d=" M 1042.880, 674.185 1050.207, 667.380 1055.461, 662.500 " fill="none" stroke="rgb(35, 35, 35)" stroke-linecap="butt" stroke-linejoin="round" stroke-opacity="1.0" stroke-width="30" />
            <path d=" M 1002.449, 723.737 1007.519, 717.289 1007.839, 716.882 1008.349, 716.233 1009.188, 715.165 1009.189, 715.165 1009.599, 714.642 1009.898, 714.262 1013.411, 709.793 1019.591, 701.932 1020.566, 700.692 1023.621, 696.807 1024.411, 695.909 1031.017, 688.402 1037.623, 680.895 1044.229, 673.387 1044.957, 672.561 1047.473, 670.190 1054.751, 663.332 1059.454, 658.901 " fill="none" stroke="rgb(35, 35, 35)" stroke-linecap="butt" stroke-linejoin="round" stroke-opacity="1.0" stroke-width="30" />
            <path d=" M 1010.836, 711.893 1011.352, 711.281 1011.352, 711.281 1011.410, 711.212 1011.573, 711.018 1014.076, 708.050 1014.185, 707.920 1020.630, 700.274 1025.213, 694.837 1026.484, 693.329 1032.947, 685.661 " fill="none" stroke="rgb(35, 35, 35)" stroke-linecap="butt" stroke-linejoin="round" stroke-opacity="1.0" stroke-width="30" />
            <path d=" M 995.012, 734.836 1000.933, 726.777 1004.904, 721.373 1006.016, 719.859 1006.590, 719.078 1007.257, 718.170 1008.323, 716.719 1008.323, 716.719 1013.411, 709.793 " fill="none" stroke="rgb(35, 35, 35)" stroke-linecap="butt" stroke-linejoin="round" stroke-opacity="1.0" stroke-width="30" />
            <path d=" M 1001.514, 726.666 1005.060, 721.420 1006.016, 720.006 1007.257, 718.170 " fill="none" stroke="rgb(35, 35, 35)" stroke-linecap="butt" stroke-linejoin="round" stroke-opacity="1.0" stroke-width="30" />
            <path d=" M 1162.797, 614.600 1170.632, 614.714 1180.631, 614.859 1184.347, 614.913 1193.010, 615.039 1202.913, 616.425 1203.368, 616.489 1211.522, 617.630 1221.425, 619.017 1223.402, 619.293 " fill="none" stroke="rgb(35, 35, 35)" stroke-linecap="butt" stroke-linejoin="round" stroke-opacity="1.0" stroke-width="30" />
            <path d=" M 1118.696, 623.060 1121.478, 622.237 1131.067, 619.399 1133.341, 618.726 1143.176, 616.918 1147.242, 616.171 1148.326, 616.103 1158.307, 615.481 1168.288, 614.860 1170.632, 614.714 " fill="none" stroke="rgb(35, 35, 35)" stroke-linecap="butt" stroke-linejoin="round" stroke-opacity="1.0" stroke-width="30" />
            <path d=" M 1223.402, 619.293 1233.111, 621.689 1242.820, 624.084 1252.528, 626.480 1253.738, 626.778 " fill="none" stroke="rgb(35, 35, 35)" stroke-linecap="butt" stroke-linejoin="round" stroke-opacity="1.0" stroke-width="30" />
            <path d=" M 776.793, 584.708 783.732, 588.574 " fill="none" stroke="rgb(35, 35, 35)" stroke-linecap="butt" stroke-linejoin="round" stroke-opacity="1.0" stroke-width="30" />
            <path d=" M 765.100, 576.806 773.606, 582.065 780.700, 586.452 " fill="none" stroke="rgb(35, 35, 35)" stroke-linecap="butt" stroke-linejoin="round" stroke-opacity="1.0" stroke-width="30" />
            <path d=" M 1310.351, 644.694 1318.723, 649.679 1327.315, 654.795 1335.907, 659.911 1337.726, 660.994 1346.388, 665.991 1355.049, 670.988 1360.869, 674.345 1369.643, 679.142 1378.418, 683.938 1379.851, 684.722 " fill="none" stroke="rgb(35, 35, 35)" stroke-linecap="butt" stroke-linejoin="round" stroke-opacity="1.0" stroke-width="30" />
            <path d=" M 1039.182, 277.311 1041.590, 267.605 1043.081, 261.592 1045.771, 251.961 1046.979, 247.633 1050.134, 238.144 1052.733, 230.328 1056.393, 221.022 1058.618, 215.365 1062.454, 206.130 1065.826, 198.012 1066.289, 196.898 " fill="none" stroke="rgb(35, 35, 35)" stroke-linecap="butt" stroke-linejoin="round" stroke-opacity="1.0" stroke-width="30" />
            <path d=" M 1104.722, 120.149 1099.925, 128.924 1095.129, 137.698 1094.345, 139.131 1089.348, 147.793 1084.351, 156.455 1080.994, 162.274 1075.878, 170.866 1070.762, 179.459 1069.679, 181.277 1064.694, 189.649 " fill="none" stroke="rgb(35, 35, 35)" stroke-linecap="butt" stroke-linejoin="round" stroke-opacity="1.0" stroke-width="30" />
            <path d=" M 872.840, 532.414 874.601, 524.867 877.392, 517.399 881.094, 510.049 885.586, 502.857 890.751, 495.863 896.470, 489.105 902.623, 482.623 909.105, 476.470 915.863, 470.751 922.857, 465.586 930.049, 461.094 937.399, 457.392 944.867, 454.601 952.414, 452.840 960.000, 452.226 967.586, 452.840 975.133, 454.601 982.601, 457.392 989.951, 461.094 997.143, 465.586 1004.137, 470.751 1010.895, 476.470 1017.377, 482.623 1023.530, 489.105 1029.249, 495.863 1034.414, 502.857 1038.906, 510.049 1042.608, 517.399 1045.399, 524.867 1047.160, 532.414 1047.774, 540.000 1047.160, 547.586 1045.399, 555.133 1042.608, 562.601 1038.906, 569.951 1034.414, 577.143 1029.249, 584.137 1023.530, 590.895 1017.377, 597.377 1010.895, 603.530 1004.137, 609.249 997.143, 614.414 989.951, 618.906 982.601, 622.608 975.133, 625.399 967.586, 627.160 960.000, 627.774 952.414, 627.160 944.867, 625.399 937.399, 622.608 930.049, 618.906 922.857, 614.414 915.863, 609.249 909.105, 603.530 902.623, 597.377 896.470, 590.895 890.751, 584.137 885.586, 577.143 881.094, 569.951 877.392, 562.601 874.601, 555.133 872.840, 547.586 872.226, 540.000 872.840, 532.414 " fill="none" stroke="rgb(35, 35, 35)" stroke-linecap="butt" stroke-linejoin="round" stroke-opacity="1.0" stroke-width="30" />
            <path d=" M 880.818, 802.689 878.410, 812.395 876.919, 818.408 874.229, 828.039 873.021, 832.367 869.866, 841.856 867.267, 849.672 863.607, 858.978 861.382, 864.635 857.546, 873.870 854.174, 881.988 853.711, 883.102 " fill="none" stroke="rgb(35, 35, 35)" stroke-linecap="butt" stroke-linejoin="round" stroke-opacity="1.0" stroke-width="30" />
            <path d=" M 815.278, 959.851 820.075, 951.076 824.871, 942.302 825.655, 940.869 830.652, 932.207 835.649, 923.545 839.006, 917.726 844.122, 909.134 849.238, 900.541 850.321, 898.723 855.306, 890.351 " fill="none" stroke="rgb(35, 35, 35)" stroke-linecap="butt" stroke-linejoin="round" stroke-opacity="1.0" stroke-width="30" />
            <path d=" M 609.649, 435.306 601.277, 430.321 592.685, 425.205 584.093, 420.089 582.274, 419.006 573.612, 414.009 564.951, 409.012 559.131, 405.655 550.357, 400.858 541.582, 396.062 540.149, 395.278 " fill="none" stroke="rgb(35, 35, 35)" stroke-linecap="butt" stroke-linejoin="round" stroke-opacity="1.0" stroke-width="30" />
            <path d=" M 1004.708, 723.207 1008.323, 716.719 " fill="none" stroke="rgb(35, 35, 35)" stroke-linecap="butt" stroke-linejoin="round" stroke-opacity="1.0" stroke-width="30" />
            <path d=" M 996.806, 734.900 1002.065, 726.394 1006.016, 720.006 " fill="none" stroke="rgb(35, 35, 35)" stroke-linecap="butt" stroke-linejoin="round" stroke-opacity="1.0" stroke-width="30" />
            <path d=" M 915.292, 356.793 911.677, 363.281 " fill="none" stroke="rgb(35, 35, 35)" stroke-linecap="butt" stroke-linejoin="round" stroke-opacity="1.0" stroke-width="30" />
            <path d=" M 923.194, 345.100 917.935, 353.606 913.984, 359.994 " fill="none" stroke="rgb(35, 35, 35)" stroke-linecap="butt" stroke-linejoin="round" stroke-opacity="1.0" stroke-width="30" />
            <path d=" M 708.478, 462.370 698.678, 460.383 688.877, 458.396 681.592, 456.919 671.961, 454.229 667.633, 453.021 658.144, 449.866 650.328, 447.267 641.022, 443.607 635.365, 441.382 626.130, 437.546 618.012, 434.174 616.898, 433.711 " fill="none" stroke="rgb(35, 35, 35)" stroke-linecap="butt" stroke-linejoin="round" stroke-opacity="1.0" stroke-width="30" />
            <path d=" M 1143.207, 495.292 1136.268, 491.426 " fill="none" stroke="rgb(35, 35, 35)" stroke-linecap="butt" stroke-linejoin="round" stroke-opacity="1.0" stroke-width="30" />
            <path d=" M 1154.900, 503.194 1146.394, 497.935 1139.300, 493.548 " fill="none" stroke="rgb(35, 35, 35)" stroke-linecap="butt" stroke-linejoin="round" stroke-opacity="1.0" stroke-width="30" />
            <path d=" M 1211.522, 617.630 1221.322, 619.617 1231.123, 621.604 1238.408, 623.081 1248.039, 625.771 1252.367, 626.979 1261.856, 630.134 1269.672, 632.733 1278.978, 636.393 1284.635, 638.618 1293.870, 642.454 1301.988, 645.826 1303.102, 646.289 " fill="none" stroke="rgb(35, 35, 35)" stroke-linecap="butt" stroke-linejoin="round" stroke-opacity="1.0" stroke-width="30" />
            <path d=" M 735.654, 465.087 725.688, 464.262 716.632, 463.511 " fill="none" stroke="rgb(35, 35, 35)" stroke-linecap="butt" stroke-linejoin="round" stroke-opacity="1.0" stroke-width="30" />
            <path d=" M 884.964, 738.480 885.042, 743.577 885.194, 753.576 885.345, 763.575 885.357, 764.346 " fill="none" stroke="rgb(35, 35, 35)" stroke-linecap="butt" stroke-linejoin="round" stroke-opacity="1.0" stroke-width="30" />
            <path d=" M 899.434, 379.308 895.589, 384.091 " fill="none" stroke="rgb(35, 35, 35)" stroke-linecap="butt" stroke-linejoin="round" stroke-opacity="1.0" stroke-width="30" />
            <path d=" M 1035.036, 341.520 1034.958, 336.423 1034.806, 326.424 1034.655, 316.425 1034.643, 315.654 " fill="none" stroke="rgb(35, 35, 35)" stroke-linecap="butt" stroke-linejoin="round" stroke-opacity="1.0" stroke-width="30" />
            <path d=" M 1020.566, 700.692 1024.411, 695.909 " fill="none" stroke="rgb(35, 35, 35)" stroke-linecap="butt" stroke-linejoin="round" stroke-opacity="1.0" stroke-width="30" />
            <path d=" M 1184.347, 614.913 1194.312, 615.738 1203.368, 616.489 " fill="none" stroke="rgb(35, 35, 35)" stroke-linecap="butt" stroke-linejoin="round" stroke-opacity="1.0" stroke-width="30" />
        </g>
    </g>
</svg>
